<svg width="162" height="50" viewBox="0 0 162 50" fill="none" xmlns="http://www.w3.org/2000/svg">
<path d="M159 50C160.657 50 162 48.6568 162 47C162 45.3431 160.657 44 159 44C157.344 44 156 45.3431 156 47C156 48.6568 157.344 50 159 50Z" fill="white"/>
<path d="M133.003 50C134.66 50 136.003 48.6568 136.003 47C136.003 45.3431 134.66 44 133.003 44C131.346 44 130.003 45.3431 130.003 47C130.003 48.6568 131.346 50 133.003 50Z" fill="white"/>
<path d="M106.994 50C107.588 50.0022 108.169 49.8282 108.664 49.4999C109.159 49.1717 109.545 48.7038 109.774 48.1559C110.003 47.6079 110.064 47.0044 109.949 46.4217C109.835 45.839 109.55 45.3034 109.131 44.8827C108.712 44.462 108.177 44.1752 107.595 44.0585C107.013 43.9418 106.409 44.0006 105.86 44.2273C105.312 44.454 104.842 44.8385 104.512 45.3321C104.182 45.8257 104.006 46.4061 104.006 47C104.006 47.7937 104.32 48.555 104.88 49.1173C105.441 49.6796 106.201 49.997 106.994 50Z" fill="white"/>
<path d="M81.0084 50C81.6017 50 82.1818 49.8241 82.6751 49.4944C83.1685 49.1648 83.5529 48.6963 83.78 48.1481C84.007 47.5999 84.0664 46.9967 83.9506 46.4147C83.8349 45.8328 83.5492 45.2983 83.1296 44.8787C82.7101 44.4592 82.1756 44.1734 81.5936 44.0576C81.0117 43.9419 80.4084 44.0013 79.8602 44.2284C79.3121 44.4554 78.8436 44.84 78.514 45.3333C78.1843 45.8266 78.0083 46.4066 78.0083 47C78.0083 47.3939 78.0858 47.7841 78.2366 48.1481C78.3874 48.5121 78.6084 48.8427 78.8869 49.1213C79.1655 49.3999 79.4963 49.6209 79.8602 49.7717C80.2242 49.9225 80.6144 50 81.0084 50Z" fill="white"/>
<path d="M55.0109 50C56.6677 50 58.0109 48.6568 58.0109 47C58.0109 45.3431 56.6677 44 55.0109 44C53.354 44 52.0109 45.3431 52.0109 47C52.0109 48.6568 53.354 50 55.0109 50Z" fill="white"/>
<path d="M29.0136 50C30.6705 50 32.01 48.6568 32.0055 47C32.0011 45.3431 30.6543 44 28.9974 44C27.3406 44 26.0011 45.3431 26.0055 47C26.01 48.6568 27.3568 50 29.0136 50Z" fill="white"/>
<path d="M3.01126 44C2.41696 43.9978 1.83545 44.1721 1.34036 44.5009C0.845282 44.8297 0.458996 45.2981 0.23053 45.8468C0.00206344 46.3954 -0.0582986 46.9996 0.0570966 47.5826C0.172492 48.1656 0.458417 48.7011 0.878658 49.1213C1.2989 49.5416 1.83445 49.8275 2.41745 49.9429C3.00044 50.0583 3.60465 49.9979 4.1533 49.7695C4.70194 49.541 5.17038 49.1548 5.49916 48.6597C5.82795 48.1646 6.00222 47.583 5.99998 46.9887C5.997 46.197 5.68119 45.4385 5.12134 44.8787C4.5615 44.3188 3.803 44.003 3.01126 44Z" fill="white"/>
<path d="M159 28C160.657 28 162 26.6569 162 25C162 23.3431 160.657 22 159 22C157.344 22 156 23.3431 156 25C156 26.6569 157.344 28 159 28Z" fill="white"/>
<path d="M133.003 28C134.66 28 136.003 26.6569 136.003 25C136.003 23.3431 134.66 22 133.003 22C131.346 22 130.003 23.3431 130.003 25C130.003 26.6569 131.346 28 133.003 28Z" fill="white"/>
<path d="M106.994 28C107.589 28.0022 108.17 27.8279 108.665 27.4991C109.16 27.1703 109.547 26.7019 109.775 26.1532C110.004 25.6046 110.064 25.0005 109.949 24.4175C109.833 23.8345 109.547 23.2989 109.127 22.8786C108.707 22.4584 108.171 22.1725 107.588 22.0571C107.005 21.9417 106.401 22.0021 105.853 22.2305C105.304 22.459 104.835 22.8453 104.507 23.3403C104.178 23.8354 104.004 24.417 104.006 25.0113C104.009 25.803 104.325 26.5614 104.885 27.1213C105.444 27.6811 106.203 27.997 106.994 28Z" fill="white"/>
<path d="M81.0084 28C81.6022 28 82.1826 27.8237 82.6762 27.4936C83.1698 27.1634 83.5543 26.6942 83.7811 26.1454C84.0078 25.5965 84.0665 24.9928 83.9498 24.4105C83.8331 23.8283 83.5463 23.2937 83.1256 22.8746C82.7049 22.4555 82.1693 22.1707 81.5866 22.0563C81.0039 21.9418 80.4004 22.0028 79.8524 22.2316C79.3044 22.4604 78.8367 22.8467 78.5084 23.3415C78.1802 23.8364 78.0061 24.4175 78.0083 25.0113C78.0083 25.4047 78.086 25.7943 78.2369 26.1576C78.3878 26.5209 78.6089 26.8509 78.8876 27.1286C79.1664 27.4063 79.4972 27.6262 79.8611 27.7757C80.225 27.9252 80.6149 28.0015 81.0084 28Z" fill="white"/>
<path d="M55.0109 28C56.6677 28 58.0109 26.6569 58.0109 25C58.0109 23.3431 56.6677 22 55.0109 22C53.354 22 52.0109 23.3431 52.0109 25C52.0109 26.6569 53.354 28 55.0109 28Z" fill="white"/>
<path d="M29.0136 28C30.6705 28 32.01 26.6568 32.0055 25C32.0011 23.3432 30.6543 22 28.9974 22C27.3406 22 26.0011 23.3432 26.0055 25C26.01 26.6568 27.3568 28 29.0136 28Z" fill="white"/>
<path d="M3.00001 28C3.59383 28 4.17425 27.8237 4.66784 27.4936C5.16142 27.1634 5.54595 26.6942 5.77267 26.1454C5.9994 25.5965 6.05822 24.9928 5.94154 24.4105C5.82487 23.8283 5.53792 23.2937 5.11723 22.8746C4.69655 22.4555 4.16102 22.1707 3.57834 22.0563C2.99566 21.9418 2.39215 22.0028 1.84418 22.2316C1.29621 22.4604 0.828409 22.8467 0.500134 23.3415C0.17186 23.8364 -0.00221946 24.4175 2.13643e-05 25.0113C1.85418e-05 25.4047 0.0776886 25.7943 0.228589 26.1576C0.37949 26.5209 0.600748 26.8509 0.879469 27.1286C1.15819 27.4063 1.48898 27.6262 1.85289 27.7757C2.21679 27.9252 2.60658 28.0015 3.00001 28Z" fill="white"/>
<path d="M159 6C160.657 6 162 4.65685 162 3C162 1.34315 160.657 0 159 0C157.344 0 156 1.34315 156 3C156 4.65685 157.344 6 159 6Z" fill="white"/>
<path d="M133.003 6C134.66 6 136.003 4.65685 136.003 3C136.003 1.34315 134.66 0 133.003 0C131.346 0 130.003 1.34315 130.003 3C130.003 4.65685 131.346 6 133.003 6Z" fill="white"/>
<path d="M106.994 5.99998C107.588 6.00222 108.169 5.82821 108.664 5.49993C109.159 5.17165 109.545 4.70385 109.774 4.15587C110.003 3.6079 110.064 3.00438 109.949 2.4217C109.835 1.83902 109.55 1.30341 109.131 0.882724C108.712 0.462035 108.177 0.175153 107.595 0.0584772C107.013 -0.0581985 106.409 0.000553511 105.86 0.227279C105.312 0.454004 104.842 0.838538 104.512 1.33212C104.182 1.82571 104.006 2.40614 104.006 2.99997C104.006 3.79365 104.32 4.55499 104.88 5.11728C105.441 5.67956 106.201 5.99698 106.994 5.99998Z" fill="white"/>
<path d="M81.0084 6C81.6017 6 82.1818 5.82407 82.6751 5.49442C83.1685 5.16478 83.5529 4.69626 83.78 4.14808C84.007 3.5999 84.0664 2.99667 83.9506 2.41473C83.8349 1.83278 83.5492 1.2982 83.1296 0.878644C82.7101 0.459086 82.1756 0.173396 81.5936 0.0576403C81.0117 -0.0581153 80.4084 0.00131467 79.8602 0.228378C79.3121 0.45544 78.8436 0.839951 78.514 1.3333C78.1843 1.82665 78.0083 2.40663 78.0083 2.99997C78.0083 3.39394 78.0858 3.7841 78.2366 4.14808C78.3874 4.51205 78.6084 4.84273 78.8869 5.1213C79.1655 5.39988 79.4963 5.62087 79.8602 5.77164C80.2242 5.9224 80.6144 6 81.0084 6Z" fill="white"/>
<path d="M55.0109 6C56.6677 6 58.0109 4.65685 58.0109 3C58.0109 1.34315 56.6677 0 55.0109 0C53.354 0 52.0109 1.34315 52.0109 3C52.0109 4.65685 53.354 6 55.0109 6Z" fill="white"/>
<path d="M29.0136 5.99998C30.6705 5.99998 32.01 4.65681 32.0055 2.99995C32.0011 1.3431 30.6543 0 28.9974 0C27.3406 0 26.0011 1.3431 26.0055 2.99995C26.01 4.65681 27.3568 5.99998 29.0136 5.99998Z" fill="white"/>
<path d="M3 6C3.59334 6 4.17339 5.82407 4.66673 5.49442C5.16007 5.16478 5.54451 4.69626 5.77157 4.14808C5.99863 3.5999 6.05813 2.99667 5.94238 2.41473C5.82662 1.83278 5.54094 1.2982 5.12138 0.878644C4.70183 0.459086 4.16718 0.173396 3.58524 0.0576403C3.00331 -0.0581153 2.40022 0.00131467 1.85204 0.228378C1.30387 0.45544 0.835285 0.839951 0.505643 1.3333C0.176002 1.82665 0 2.40663 0 2.99997C0 3.79562 0.316156 4.55869 0.878761 5.1213C1.44136 5.68391 2.20436 6 3 6Z" fill="white"/>
</svg>
